<?xml version="1.0" encoding="UTF-8"?>
<svg width="1860px" height="447px" viewBox="0 0 1860 447" version="1.1" xmlns="http://www.w3.org/2000/svg" xmlns:xlink="http://www.w3.org/1999/xlink">
    <title>Group</title>
    <g id="Page-1" stroke="none" stroke-width="1" fill="none" fill-rule="evenodd">
        <g id="Group" fill="#000000">
            <g id="vault" fill-rule="nonzero">
                <path d="M170.666667,403.408198 L85.3333333,403.408198 L85.3333333,446.074864 L42.6666667,446.074864 L42.6666667,403.408198 L21.3333333,403.408198 C15.6753067,403.408198 10.2491733,401.161798 6.24832,397.159664 C2.24768,393.159664 0,387.732464 0,382.074864 L0,62.0750778 C0,56.4170512 2.24768,50.9909178 6.24832,46.9900645 C10.2491733,42.9894245 15.6753067,40.7417445 21.3333333,40.7417445 L170.666667,40.7417445 L170.666667,10.6617445 C170.666667,9.11337115 171.005867,7.58377115 171.656533,6.17897115 C172.3072,4.77438449 173.256533,3.52830449 174.4384,2.52755782 C175.620267,1.52681115 177.0048,0.795291154 178.498133,0.383771154 C179.991467,-0.0279621796 181.5552,-0.109455513 183.082667,0.144411154 L408.832,37.7764112 C413.813333,38.6045712 418.340267,41.1728912 421.604267,45.0246245 C424.8704,48.8761445 426.664533,53.7612645 426.666667,58.8110778 L426.666667,104.741744 L448,104.741744 L448,147.408411 L426.666667,147.408411 L426.666667,296.741531 L448,296.741531 L448,339.408198 L426.666667,339.408198 L426.666667,385.338864 C426.664533,390.388464 424.8704,395.273798 421.604267,399.126598 C418.340267,402.977264 413.813333,405.545798 408.832,406.373531 L384,410.512198 L384,446.074864 L341.333333,446.074864 L341.333333,417.637531 L183.082667,444.005531 C181.5552,444.259398 179.991467,444.178331 178.498133,443.766598 C177.0048,443.354864 175.620267,442.623131 174.4384,441.622598 C173.256533,440.622064 172.3072,439.376198 171.656533,437.970331 C171.005867,436.566598 170.666667,435.036998 170.666667,433.488198 L170.666667,403.408198 Z M213.333333,395.728198 L384,367.269531 L384,76.8804112 L213.333333,48.4430778 L213.333333,395.706864 L213.333333,395.728198 Z M309.333333,275.408198 C291.669333,275.408198 277.333333,251.514864 277.333333,222.074864 C277.333333,192.634864 291.669333,168.741744 309.333333,168.741744 C326.997333,168.741744 341.333333,192.634864 341.333333,222.074864 C341.333333,251.514864 326.997333,275.408198 309.333333,275.408198 Z" id="Shape"></path>
            </g>
            <text id="Wisp" font-family="SFMonoLigaturized-Bold, SF Mono" font-size="303" font-weight="bold">
                <tspan x="548" y="331">Wisp</tspan>
            </text>
        </g>
    </g>
</svg>
