<?xml version="1.0" encoding="UTF-8"?>
<svg width="538px" height="252px" viewBox="0 0 538 252" version="1.1" xmlns="http://www.w3.org/2000/svg" xmlns:xlink="http://www.w3.org/1999/xlink">
    <title>wisp</title>
    <g id="Page-1" stroke="none" stroke-width="1" fill="none" fill-rule="evenodd">
        <g id="wisp" transform="translate(0.692, -71)" fill="#000000" fill-rule="nonzero">
            <path d="M90.132,227.296 C90.132,222.424 92.22,215.116 96.396,206.764 C108.924,179.968 123.888,159.088 129.456,147.604 C137.808,130.552 137.808,116.632 128.412,106.54 C124.584,102.712 119.712,103.06 115.188,108.976 C108.924,116.98 102.66,127.768 96.396,139.6 C89.784,151.432 82.824,165.004 67.164,190.756 C52.2,215.464 40.716,233.908 31.668,233.908 C28.884,233.908 28.536,231.472 28.536,227.296 C28.536,222.076 29.928,215.464 32.712,208.156 C40.02,191.8 48.372,175.792 60.204,157 C68.208,144.124 72.384,133.684 72.384,125.332 C72.384,119.416 68.208,111.412 65.424,107.584 C61.944,102.712 56.376,103.408 52.2,108.976 C32.364,136.468 13.224,174.748 4.524,196.324 C1.044,205.024 0,213.376 0,220.684 C0,235.996 7.308,247.828 23.664,247.828 C38.628,247.828 52.548,238.432 62.292,227.992 C64.728,239.476 73.428,249.22 87.348,249.568 C111.708,250.264 136.764,223.468 160.428,184.144 C182.352,147.256 188.268,131.944 190.356,119.068 C191.748,110.716 189.312,104.8 183.048,104.8 C176.784,104.8 148.248,120.46 141.636,182.404 C123.54,213.376 104.748,234.952 94.656,234.952 C91.524,234.952 90.132,232.168 90.132,227.296 Z" id="Path"></path>
            <path d="M242.332,90.532 C242.332,101.32 251.728,111.76 262.864,111.76 C271.564,111.76 276.784,103.756 276.784,94.36 C276.784,84.268 267.388,71.74 257.644,71.74 C249.64,71.74 242.332,80.788 242.332,90.532 Z M268.084,212.68 C272.608,203.632 272.956,194.932 269.824,189.016 C266.692,182.752 262.168,182.056 259.384,188.32 C248.596,211.984 230.5,235.3 216.58,235.3 C212.752,235.3 211.36,232.168 211.36,226.6 C211.36,221.032 213.1,213.724 216.232,205.72 C222.148,191.8 238.156,165.7 244.768,150.736 C253.816,133.336 251.032,118.372 244.42,111.412 C239.896,106.192 235.72,106.888 230.5,113.848 C217.624,131.944 195.352,172.312 186.652,196.672 C183.868,205.72 182.476,213.028 182.476,219.64 C182.476,237.04 191.872,249.22 213.1,249.22 C233.632,249.22 257.644,234.604 268.084,212.68 Z" id="Shape"></path>
            <path d="M308.576,233.212 C300.92,233.212 293.612,221.032 289.436,204.676 C299.876,189.712 309.62,174.748 317.972,161.524 C318.668,170.92 319.016,182.056 319.016,193.192 C319.016,215.812 315.884,233.212 308.576,233.212 Z M260.9,199.804 C260.9,207.808 262.988,216.16 266.816,222.772 C278.648,244.696 299.528,250.264 320.408,249.568 C346.508,248.524 370.868,235.3 384.092,210.94 C390.356,200.152 389.312,190.408 387.572,186.928 C385.136,181.36 379.916,178.924 376.784,186.928 C370.52,203.98 360.776,215.464 346.508,225.208 C350.336,217.552 352.076,207.808 352.424,199.108 C353.12,180.316 348.596,157.696 348.596,132.988 C348.596,128.464 348.944,122.548 349.292,118.372 C360.08,100.624 357.992,92.968 348.596,92.968 C343.376,92.968 337.112,95.404 331.544,100.276 C323.54,106.888 319.364,114.892 317.972,127.42 C308.924,142.384 296.744,160.48 285.26,176.836 C284.216,168.484 278.996,166.744 272.036,172.66 C264.38,179.272 260.9,189.364 260.9,199.804 Z" id="Shape"></path>
            <path d="M440.244,162.22 C455.208,136.816 474.348,120.808 480.612,123.592 C482.352,124.288 483.048,128.464 483.048,134.728 C483.048,146.212 478.872,163.96 470.52,180.316 C456.252,209.2 440.592,228.34 429.804,228.34 C420.756,228.34 418.32,203.284 429.108,181.012 L440.244,162.22 Z M512.628,145.168 C512.628,127.42 502.536,108.628 481.656,108.628 C472.26,108.628 462.168,113.152 453.468,119.068 C453.468,114.544 452.772,110.02 449.988,106.192 C447.204,102.364 442.68,100.972 436.416,108.628 C414.84,137.512 357.42,245.74 347.328,278.8 C344.196,288.544 343.152,295.852 343.152,301.42 C343.152,308.728 344.892,313.6 350.112,320.212 C353.592,324.388 357.768,322.996 360.552,316.732 C375.168,282.628 390.132,252.7 405.444,224.164 C413.448,242.956 430.5,252.352 457.992,252.352 C486.876,252.352 516.108,242.608 531.768,214.42 C537.684,203.98 537.336,194.236 536.64,190.756 C535.248,183.796 527.94,182.056 523.764,190.06 C513.672,210.244 493.836,233.212 468.084,238.432 C479.22,229.384 490.704,213.724 499.056,194.584 C507.06,177.88 512.628,160.132 512.628,145.168 Z" id="Shape"></path>
        </g>
    </g>
</svg>