<?xml version="1.0" encoding="UTF-8"?>
<svg width="1846px" height="448px" viewBox="0 0 1846 448" version="1.1" xmlns="http://www.w3.org/2000/svg" xmlns:xlink="http://www.w3.org/1999/xlink">
    <title>Group</title>
    <g id="Page-1" stroke="none" stroke-width="1" fill="none" fill-rule="evenodd">
        <g id="Group" transform="translate(0, 0)" fill="#000000" fill-rule="nonzero">
            <path d="M527.801,198.456 C527.801,177.864 532.256,159.4995 541.166,143.3625 C550.076,127.2255 562.5005,114.6525 578.4395,105.6435 C594.3785,96.6345 612.446,92.13 632.642,92.13 C657.392,92.13 678.578,98.664 696.2,111.732 C713.822,124.8 725.603,142.62 731.543,165.192 L675.707,165.192 C671.549,156.48 665.6585,149.847 658.0355,145.293 C650.4125,140.739 641.75,138.462 632.048,138.462 C616.406,138.462 603.734,143.907 594.032,154.797 C584.33,165.687 579.479,180.24 579.479,198.456 C579.479,216.672 584.33,231.225 594.032,242.115 C603.734,253.005 616.406,258.45 632.048,258.45 C641.75,258.45 650.4125,256.173 658.0355,251.619 C665.6585,247.065 671.549,240.432 675.707,231.72 L731.543,231.72 C725.603,254.292 713.822,272.0625 696.2,285.0315 C678.578,298.0005 657.392,304.485 632.642,304.485 C612.446,304.485 594.3785,299.9805 578.4395,290.9715 C562.5005,281.9625 550.076,269.439 541.166,253.401 C532.256,237.363 527.801,219.048 527.801,198.456 Z" id="Path"></path>
            <path d="M813.515,164.895 C819.455,155.787 826.88,148.6095 835.79,143.3625 C844.7,138.1155 854.6,135.492 865.49,135.492 L865.49,189.249 L851.531,189.249 C838.859,189.249 829.355,191.9715 823.019,197.4165 C816.683,202.8615 813.515,212.415 813.515,226.077 L813.515,303 L762.728,303 L762.728,137.274 L813.515,137.274 L813.515,164.895 Z" id="Path"></path>
            <polygon id="Path" points="1059.134 137.274 955.184 381.705 900.536 381.705 938.552 297.357 871.133 137.274 927.86 137.274 966.173 240.927 1004.189 137.274"></polygon>
            <path d="M1128.335,160.737 C1133.285,153.015 1140.116,146.778 1148.828,142.026 C1157.54,137.274 1167.737,134.898 1179.419,134.898 C1193.081,134.898 1205.456,138.363 1216.544,145.293 C1227.632,152.223 1236.3935,162.123 1242.8285,174.993 C1249.2635,187.863 1252.481,202.812 1252.481,219.84 C1252.481,236.868 1249.2635,251.8665 1242.8285,264.8355 C1236.3935,277.8045 1227.632,287.8035 1216.544,294.8325 C1205.456,301.8615 1193.081,305.376 1179.419,305.376 C1167.935,305.376 1157.7875,303 1148.9765,298.248 C1140.1655,293.496 1133.285,287.358 1128.335,279.834 L1128.335,382.002 L1077.548,382.002 L1077.548,137.274 L1128.335,137.274 L1128.335,160.737 Z M1200.803,219.84 C1200.803,207.168 1197.2885,197.2185 1190.2595,189.9915 C1183.2305,182.7645 1174.568,179.151 1164.272,179.151 C1154.174,179.151 1145.6105,182.814 1138.5815,190.14 C1131.5525,197.466 1128.038,207.465 1128.038,220.137 C1128.038,232.809 1131.5525,242.808 1138.5815,250.134 C1145.6105,257.46 1154.174,261.123 1164.272,261.123 C1174.37,261.123 1182.983,257.4105 1190.111,249.9855 C1197.239,242.5605 1200.803,232.512 1200.803,219.84 Z" id="Shape"></path>
            <path d="M1371.578,259.935 L1371.578,303 L1345.739,303 C1327.325,303 1312.97,298.4955 1302.674,289.4865 C1292.378,280.4775 1287.23,265.776 1287.23,245.382 L1287.23,179.448 L1267.034,179.448 L1267.034,137.274 L1287.23,137.274 L1287.23,96.882 L1338.017,96.882 L1338.017,137.274 L1371.281,137.274 L1371.281,179.448 L1338.017,179.448 L1338.017,245.976 C1338.017,250.926 1339.205,254.49 1341.581,256.668 C1343.957,258.846 1347.917,259.935 1353.461,259.935 L1371.578,259.935 Z" id="Path"></path>
            <path d="M1425.335,120.048 C1416.425,120.048 1409.1485,117.4245 1403.5055,112.1775 C1397.8625,106.9305 1395.041,100.446 1395.041,92.724 C1395.041,84.804 1397.8625,78.2205 1403.5055,72.9735 C1409.1485,67.7265 1416.425,65.103 1425.335,65.103 C1434.047,65.103 1441.2245,67.7265 1446.8675,72.9735 C1452.5105,78.2205 1455.332,84.804 1455.332,92.724 C1455.332,100.446 1452.5105,106.9305 1446.8675,112.1775 C1441.2245,117.4245 1434.047,120.048 1425.335,120.048 Z M1450.58,137.274 L1450.58,303 L1399.793,303 L1399.793,137.274 L1450.58,137.274 Z" id="Shape"></path>
            <path d="M1477.31,219.84 C1477.31,202.812 1480.5275,187.863 1486.9625,174.993 C1493.3975,162.123 1502.159,152.223 1513.247,145.293 C1524.335,138.363 1536.71,134.898 1550.372,134.898 C1561.262,134.898 1571.2115,137.175 1580.2205,141.729 C1589.2295,146.283 1596.308,152.421 1601.456,160.143 L1601.456,83.22 L1652.243,83.22 L1652.243,303 L1601.456,303 L1601.456,279.24 C1596.704,287.16 1589.9225,293.496 1581.1115,298.248 C1572.3005,303 1562.054,305.376 1550.372,305.376 C1536.71,305.376 1524.335,301.8615 1513.247,294.8325 C1502.159,287.8035 1493.3975,277.8045 1486.9625,264.8355 C1480.5275,251.8665 1477.31,236.868 1477.31,219.84 Z M1601.456,220.137 C1601.456,207.465 1597.9415,197.466 1590.9125,190.14 C1583.8835,182.814 1575.32,179.151 1565.222,179.151 C1555.124,179.151 1546.5605,182.7645 1539.5315,189.9915 C1532.5025,197.2185 1528.988,207.168 1528.988,219.84 C1528.988,232.512 1532.5025,242.5605 1539.5315,249.9855 C1546.5605,257.4105 1555.124,261.123 1565.222,261.123 C1575.32,261.123 1583.8835,257.46 1590.9125,250.134 C1597.9415,242.808 1601.456,232.809 1601.456,220.137 Z" id="Shape"></path>
            <path d="M1845.293,217.464 C1845.293,222.216 1844.996,227.166 1844.402,232.314 L1729.463,232.314 C1730.255,242.61 1733.5715,250.4805 1739.4125,255.9255 C1745.2535,261.3705 1752.431,264.093 1760.945,264.093 C1773.617,264.093 1782.428,258.747 1787.378,248.055 L1841.432,248.055 C1838.66,258.945 1833.6605,268.746 1826.4335,277.458 C1819.2065,286.17 1810.148,293.001 1799.258,297.951 C1788.368,302.901 1776.191,305.376 1762.727,305.376 C1746.491,305.376 1732.037,301.911 1719.365,294.981 C1706.693,288.051 1696.793,278.151 1689.665,265.281 C1682.537,252.411 1678.973,237.363 1678.973,220.137 C1678.973,202.911 1682.4875,187.863 1689.5165,174.993 C1696.5455,162.123 1706.396,152.223 1719.068,145.293 C1731.74,138.363 1746.293,134.898 1762.727,134.898 C1778.765,134.898 1793.021,138.264 1805.495,144.996 C1817.969,151.728 1827.7205,161.331 1834.7495,173.805 C1841.7785,186.279 1845.293,200.832 1845.293,217.464 Z M1793.318,204.099 C1793.318,195.387 1790.348,188.457 1784.408,183.309 C1778.468,178.161 1771.043,175.587 1762.133,175.587 C1753.619,175.587 1746.4415,178.062 1740.6005,183.012 C1734.7595,187.962 1731.146,194.991 1729.76,204.099 L1793.318,204.099 Z" id="Shape"></path>
            <path d="M198.107002,1.79793376 C199.016451,1.9469085 199.925899,2.09588324 200.862906,2.24937237 C203.882434,2.74602728 206.899914,3.25414023 209.917519,3.76233501 C212.093067,4.12266593 214.268729,4.48230767 216.444496,4.8413145 C222.333961,5.81531332 228.221678,6.79951809 234.109057,7.78603977 C240.278441,8.81849898 246.449143,9.84302465 252.619636,10.8688261 C263.641604,12.7025976 274.662194,14.5445312 285.682258,16.3896953 C295.662719,18.0605535 305.644567,19.7228963 315.627479,21.3790342 C327.23904,23.3053645 338.849673,25.2371661 350.458991,27.1769732 C356.597652,28.202679 362.736654,29.2262027 368.876629,30.2440187 C374.648084,31.2011075 380.418156,32.1661433 386.187263,33.1372816 C388.30234,33.4919948 390.41788,33.8439611 392.533909,34.1929514 C395.426453,34.6704745 398.317141,35.1579984 401.207588,35.6480314 C402.041255,35.783258 402.874921,35.9184845 403.733851,36.0578089 C413.402168,37.7228564 419.79488,40.3291207 425.780312,48.4759581 C428.229148,52.586505 428.655812,55.715231 428.643837,60.4574034 C428.643761,61.4581388 428.643686,62.4588743 428.643608,63.4899351 C428.638447,64.5629789 428.633285,65.6360228 428.627968,66.7415831 C428.625845,68.3977967 428.625845,68.3977967 428.62368,70.0874693 C428.618084,73.6128265 428.605532,77.1381201 428.592812,80.6634581 C428.587796,83.0540821 428.583233,85.4447072 428.57914,87.8353331 C428.568116,93.6947325 428.550854,99.5540845 428.530312,105.413458 C435.460312,105.413458 442.390312,105.413458 449.530312,105.413458 C449.530312,119.603458 449.530312,133.793458 449.530312,148.413458 C442.600312,148.413458 435.670312,148.413458 428.530312,148.413458 C428.530312,197.583458 428.530312,246.753458 428.530312,297.413458 C435.460312,297.413458 442.390312,297.413458 449.530312,297.413458 C449.530312,311.603458 449.530312,325.793458 449.530312,340.413458 C442.600312,340.413458 435.670312,340.413458 428.530312,340.413458 C428.551259,341.880975 428.572206,343.348492 428.593788,344.86048 C428.666492,350.334012 428.712222,355.807502 428.750038,361.281378 C428.770084,363.645058 428.797329,366.008689 428.832069,368.372198 C428.880894,371.780607 428.903351,375.188356 428.920937,378.597052 C428.941582,379.644289 428.962227,380.691527 428.983498,381.770498 C428.985724,389.142496 427.899439,395.555191 422.917335,401.260611 C413.961845,409.950617 397.476917,411.413458 385.530312,411.413458 C385.530312,423.293458 385.530312,435.173458 385.530312,447.413458 C371.340312,447.413458 357.150312,447.413458 342.530312,447.413458 C342.530312,438.173458 342.530312,428.933458 342.530312,419.413458 C340.591476,419.739188 338.65264,420.064918 336.655052,420.400519 C318.395519,423.467615 300.134937,426.528407 281.873374,429.583395 C272.484655,431.154196 263.0963,432.727119 253.708778,434.30506 C245.52592,435.680504 237.342403,437.051946 229.158072,438.418601 C224.825212,439.142264 220.492707,439.867917 216.160986,440.598364 C212.0817,441.286178 208.001553,441.968628 203.92069,442.647021 C202.425231,442.896584 200.930093,443.148085 199.435314,443.401697 C197.389203,443.748549 195.342031,444.088309 193.294456,444.426398 C192.150511,444.61813 191.006566,444.809863 189.827956,445.007406 C183.871305,445.740872 179.421146,446.21744 174.530312,442.413458 C166.906664,432.248595 171.530312,417.119537 171.530312,404.413458 C143.480312,404.413458 115.430312,404.413458 86.5303115,404.413458 C86.5303115,418.603458 86.5303115,432.793458 86.5303115,447.413458 C72.3403115,447.413458 58.1503115,447.413458 43.5303115,447.413458 C43.5303115,433.223458 43.5303115,419.033458 43.5303115,404.413458 C35.0043922,404.570881 35.0043922,404.570881 26.4795303,404.77381 C17.72416,404.855072 12.1697781,403.972048 5.71781153,397.663458 C0.29293796,389.603646 0.09694652,382.537219 0.14263147,373.059836 C0.13845426,371.706406 0.13297462,370.352981 0.12631166,368.999561 C0.1118891,365.295225 0.1160917,361.591112 0.12347847,357.886764 C0.12821575,353.885992 0.11569538,349.885268 0.10546106,345.884512 C0.08827893,338.052581 0.0874318,330.220731 0.09267397,322.388786 C0.09671784,316.022245 0.09526953,309.655728 0.08992571,303.289189 C0.08917729,302.382553 0.08842886,301.475916 0.08765776,300.541807 C0.08612626,298.699894 0.08458792,296.857982 0.08304279,295.01607 C0.06931998,277.749359 0.07475401,260.482692 0.08622801,243.215982 C0.09616108,227.424801 0.08321804,211.633738 0.05929382,195.842575 C0.03490289,179.620938 0.02529487,163.399356 0.03194654,147.177701 C0.03543866,138.073356 0.03320715,128.969101 0.01569551,119.864769 C2.84217094e-14,112.114852 2.84217094e-14,104.365088 0.01776642,96.6151734 C0.0262788,92.6626115 0.02842034,88.710324 0.01311487,84.7577764 C2.84217094e-14,81.1361675 2.84217094e-14,77.5150678 0.02335411,73.8934883 C0.02888799,71.969876 0.01484529,70.0462377 2.84217094e-14,68.1226747 C0.06588922,60.3648445 0.76110921,53.3855656 6.30960369,47.5383823 C11.3052677,43.0022569 15.0929623,41.1619511 21.9336929,41.172949 C23.2517996,41.1701997 24.5699063,41.1674504 25.9279556,41.1646177 C27.3868798,41.1716956 28.8458032,41.1789652 30.3047256,41.1864073 C31.8422418,41.1869715 33.3797585,41.1866547 34.9172744,41.1855223 C39.0905053,41.1849481 43.2636215,41.1967131 47.4368257,41.2106702 C51.798365,41.2231664 56.159907,41.2243472 60.5214614,41.226721 C68.7803572,41.232939 77.0392001,41.2493542 85.2980725,41.26942 C94.7006392,41.291769 104.103208,41.3027699 113.505795,41.3128108 C132.84733,41.3337201 152.188817,41.3689024 171.530312,41.4134581 C171.506746,39.9077928 171.506746,39.9077928 171.482704,38.37171 C171.42826,34.6351385 171.393909,30.8986018 171.365517,27.1617491 C171.350463,25.5467802 171.330015,23.9318519 171.303993,22.3170225 C171.267459,19.9909925 171.250551,17.6655046 171.237343,15.3392393 C171.221859,14.6213372 171.206375,13.9034352 171.190422,13.1637785 C171.188945,8.72994423 171.709838,5.88208773 174.530312,2.41345805 C181.362025,-1.79597845 190.61101,0.514992312 198.107002,1.79793376 Z M214.530312,49.4134581 C214.530312,163.593458 214.530312,277.773458 214.530312,395.413458 C224.280613,394.627526 224.280613,394.627526 233.882271,393.312872 C234.528147,393.206551 235.174023,393.10023 235.839471,392.990687 C237.954165,392.641387 240.067651,392.285294 242.18119,391.929083 C243.716574,391.673997 245.252028,391.41933 246.787544,391.165045 C250.919821,390.479442 255.051067,389.78781 259.182114,389.094839 C263.515463,388.36882 267.849652,387.647849 272.183723,386.926153 C279.44842,385.715664 286.712464,384.501316 293.976112,383.284552 C302.377918,381.877171 310.780672,380.475572 319.183964,379.077097 C327.278962,377.729826 335.373344,376.378888 343.467426,375.026129 C346.909786,374.450853 350.352346,373.876803 353.795071,373.303717 C357.838883,372.630374 361.882143,371.95381 365.924992,371.27471 C367.410751,371.025665 368.896696,370.77773 370.382835,370.530966 C372.40512,370.194987 374.426677,369.854641 376.448189,369.514044 C377.581157,369.324532 378.714125,369.135019 379.881426,368.939764 C382.493253,368.542126 382.493253,368.542126 384.530312,367.413458 C384.530312,271.713458 384.530312,176.013458 384.530312,77.4134581 C356.851562,72.7934581 329.172812,68.1734581 300.655312,63.4134581 C291.902738,61.9516612 283.150165,60.4898643 274.132362,58.9837706 C266.314024,57.6795996 266.314024,57.6795996 258.495613,56.3758604 C255.002235,55.7933191 251.509011,55.2098616 248.015877,54.6258604 C243.567121,53.8821236 239.118111,53.139926 234.668909,52.3988668 C233.03175,52.1259078 231.394684,51.8523971 229.757717,51.5782873 C227.554973,51.2095176 225.35191,50.8427233 223.14875,50.4764463 C221.293181,50.1667239 221.293181,50.1667239 219.400125,49.8507444 C216.684605,49.3632461 216.684605,49.3632461 214.530312,49.4134581 Z" id="Shape"></path>
            <path d="M320.842812,170.975958 C322.737343,172.120489 322.737343,172.120489 324.530312,173.413458 C325.111679,173.829825 325.693046,174.246192 326.29203,174.675177 C330.638921,178.396897 333.190695,183.023758 335.780312,188.038458 C336.109667,188.66462 336.439022,189.290782 336.778358,189.935919 C341.857804,200.328527 343.071476,211.354945 342.967812,222.788458 C342.960238,223.968031 342.952665,225.147604 342.944862,226.362921 C342.64862,242.069156 338.637018,258.000711 327.502968,269.722052 C321.819932,274.594833 315.586908,277.340107 308.04203,276.890021 C300.685816,275.494285 294.822178,271.723058 290.190468,265.897833 C281.271227,252.550451 277.946402,239.067617 278.092812,223.100958 C278.10111,221.923238 278.109408,220.745519 278.117958,219.53211 C278.430913,203.327499 282.089407,187.983221 293.530312,175.788458 C301.037958,168.99719 311.333037,166.683608 320.842812,170.975958 Z" id="Path"></path>
        </g>
    </g>
</svg>